<mxfile host="app.diagrams.net" modified="2024-07-08T02:49:12.166Z" agent="Mozilla/5.0 (Windows NT 10.0; Win64; x64) AppleWebKit/537.36 (KHTML, like Gecko) Chrome/126.0.0.0 Safari/537.36 Edg/126.0.0.0" version="24.5.2" etag="3msmCCpsZwU-cQpwJfT_" type="github">
  <diagram name="Page-1" id="H2btSpMHc3UaG3iaybX8">
    <mxGraphModel>
      <root>
        <mxCell id="0" />
        <mxCell id="1" parent="0" />
      </root>
    </mxGraphModel>
  </diagram>
</mxfile>
